<svg width="459" height="284" viewBox="0 0 459 284" fill="none" xmlns="http://www.w3.org/2000/svg">
<path d="M93.96 148V58.3997H136.328C146.227 58.3997 154.931 60.2344 162.44 63.9038C169.949 67.5731 175.795 72.7358 179.976 79.3918C184.243 86.0478 186.376 93.9838 186.376 103.2C186.376 112.33 184.243 120.266 179.976 127.008C175.795 133.664 169.949 138.826 162.44 142.496C154.931 146.165 146.227 148 136.328 148H93.96ZM119.304 127.776H135.304C140.424 127.776 144.861 126.837 148.616 124.96C152.456 122.997 155.443 120.181 157.576 116.512C159.709 112.757 160.776 108.32 160.776 103.2C160.776 97.9944 159.709 93.5571 157.576 89.8878C155.443 86.2184 152.456 83.4451 148.616 81.5677C144.861 79.6051 140.424 78.6237 135.304 78.6237H119.304V127.776Z" fill="#064E3B"/>
<path d="M269.208 148L308.76 58.3997H333.72L373.4 148H347.032L316.056 70.8158H326.04L295.064 148H269.208ZM290.84 130.592L297.368 111.904H341.144L347.672 130.592H290.84Z" fill="#064E3B"/>
<path d="M230.632 149.536C220.328 149.536 212.296 146.752 206.536 141.184C200.776 135.616 197.896 127.808 197.896 117.76V80.7998H220.552V117.088C220.552 122.208 221.48 125.856 223.336 128.032C225.192 130.144 227.688 131.2 230.824 131.2C234.024 131.2 236.52 130.144 238.312 128.032C240.168 125.856 241.096 122.208 241.096 117.088V80.7998H263.368V117.76C263.368 127.808 260.488 135.616 254.728 141.184C248.968 146.752 240.936 149.536 230.632 149.536Z" fill="#064E3B"/>
<path d="M8.95996 252V162.4H49.92C58.112 162.4 65.152 163.722 71.04 166.368C77.0133 169.013 81.6213 172.853 84.864 177.888C88.1067 182.837 89.728 188.725 89.728 195.552C89.728 202.293 88.1067 208.138 84.864 213.088C81.6213 218.037 77.0133 221.877 71.04 224.608C65.152 227.253 58.112 228.576 49.92 228.576H23.04L34.304 217.568V252H8.95996ZM34.304 220.256L23.04 208.608H48.384C53.6747 208.608 57.6 207.456 60.16 205.152C62.8053 202.848 64.128 199.648 64.128 195.552C64.128 191.37 62.8053 188.128 60.16 185.824C57.6 183.52 53.6747 182.368 48.384 182.368H23.04L34.304 170.72V220.256Z" fill="#064E3B"/>
<path d="M203.032 252V182.496H175.512V162.4H255.768V182.496H228.376V252H203.032Z" fill="#064E3B"/>
<path d="M354.208 252L393.76 162.4H418.72L458.4 252H432.032L401.056 174.816H411.04L380.064 252H354.208ZM375.84 234.592L382.368 215.904H426.144L432.672 234.592H375.84Z" fill="#064E3B"/>
<path d="M267.96 252V162.4H308.92C317.112 162.4 324.152 163.722 330.04 166.368C336.013 169.013 340.621 172.853 343.864 177.888C347.107 182.837 348.728 188.725 348.728 195.552C348.728 202.293 347.107 208.138 343.864 213.088C340.621 217.952 336.013 221.706 330.04 224.352C324.152 226.912 317.112 228.192 308.92 228.192H282.04L293.304 217.568V252H267.96ZM323.384 252L301.112 219.36H328.12L350.52 252H323.384ZM293.304 220.256L282.04 208.608H307.384C312.675 208.608 316.6 207.456 319.16 205.152C321.805 202.848 323.128 199.648 323.128 195.552C323.128 191.37 321.805 188.128 319.16 185.824C316.6 183.52 312.675 182.368 307.384 182.368H282.04L293.304 170.72V220.256Z" fill="#064E3B"/>
<path d="M134.632 229.536C124.328 229.536 116.296 226.752 110.536 221.184C104.776 215.616 101.896 207.808 101.896 197.76V160.8H124.552V197.088C124.552 202.208 125.48 205.856 127.336 208.032C129.192 210.144 131.688 211.2 134.824 211.2C138.024 211.2 140.52 210.144 142.312 208.032C144.168 205.856 145.096 202.208 145.096 197.088V160.8H167.368V197.76C167.368 207.808 164.488 215.616 158.728 221.184C152.968 226.752 144.936 229.536 134.632 229.536Z" fill="#064E3B"/>
<path d="M192.6 239.518C185.694 248.43 176.832 255.634 166.697 260.573C156.562 265.511 145.427 268.052 134.153 267.999C122.879 267.946 111.769 265.3 101.681 260.266C91.5934 255.232 82.7989 247.945 75.978 238.968L93.5346 225.628C98.3092 231.911 104.465 237.012 111.527 240.536C118.588 244.06 126.366 245.912 134.257 245.949C142.149 245.986 149.944 244.208 157.038 240.751C164.132 237.294 170.336 232.251 175.17 226.013L192.6 239.518Z" fill="#08BA8B"/>
<g clip-path="url(#clip0_2_153)">
<path d="M240.941 22.9088C244.572 22.3078 249.467 23.4586 254.255 29.4196C254.446 29.6563 254.665 29.8554 254.904 30.0182L273.773 62.7291C274.932 64.738 273.482 67.2477 271.163 67.2477H235.851C235.015 67.2477 234.258 66.9063 233.712 66.3561L233.433 50.0934C233.441 45.747 237.207 41.843 241.859 40.8268C244.084 40.3408 246.241 40.6018 247.989 41.6374C249.671 42.6347 251.297 44.5435 252.196 47.9938C252.673 52.0618 250.488 54.4261 248.325 55.0875C247.196 55.4326 246.044 55.3398 245.061 54.8141C244.099 54.2998 243.05 53.234 242.384 51.1813C241.873 49.606 240.181 48.7437 238.605 49.2545C237.029 49.7658 236.166 51.4579 236.677 53.0338C237.748 56.3357 239.706 58.7544 242.232 60.1051C244.736 61.4442 247.553 61.5978 250.081 60.8249C255.201 59.2587 259.056 53.9834 258.124 47.026L258.101 46.859L258.06 46.6959C256.852 41.8727 254.366 38.4419 251.047 36.4752C247.767 34.5314 244.007 34.2165 240.578 34.9655C237.819 35.5681 235.089 36.92 232.837 38.8571V29.6334C233.192 29.2945 233.469 28.8643 233.626 28.3629C234.297 26.2147 237.026 23.5571 240.941 22.9088ZM232.837 3.01825C232.837 -0.0652153 236.92 -1.15834 238.461 1.5124L247.695 17.5202C245.055 16.7148 242.434 16.5785 239.961 16.9879C237.306 17.4275 234.854 18.5052 232.837 19.9899V3.01825Z" fill="#FFC107"/>
<path d="M204.952 29.4194C209.741 23.4583 214.637 22.3076 218.268 22.9087C222.183 23.5569 224.91 26.2147 225.582 28.3628C225.735 28.8514 226.002 29.273 226.344 29.6079V49.4233C225.257 52.7916 221.978 55.5272 218.132 56.2935C215.898 56.7384 213.747 56.4379 212.019 55.3706C210.355 54.3426 208.765 52.4043 207.929 48.938C207.526 44.8619 209.754 42.5383 211.929 41.9165C213.064 41.5921 214.215 41.7058 215.188 42.2495C216.14 42.7814 217.169 43.8657 217.797 45.9302C218.28 47.5149 219.955 48.4091 221.54 47.9272C223.126 47.4451 224.02 45.7683 223.537 44.1831C222.527 40.8623 220.614 38.408 218.114 37.0112C215.634 35.6264 212.821 35.4205 210.28 36.147C205.131 37.6187 201.18 42.8229 201.985 49.7964L202.003 49.9644L202.041 50.1284C203.161 54.9728 205.584 58.4478 208.866 60.4751C212.109 62.4788 215.864 62.8631 219.306 62.1772C221.77 61.6862 224.222 60.6011 226.344 59.0327V64.269C226.344 65.9332 224.995 67.2826 223.33 67.2827H188.018C185.699 67.2827 184.249 64.7721 185.408 62.7632L204.289 30.0288C204.534 29.8642 204.758 29.6612 204.952 29.4194ZM220.72 1.54733C222.261 -1.12369 226.344 -0.0303605 226.344 3.05319V19.9712C224.333 18.4966 221.891 17.4264 219.248 16.9888C216.771 16.5787 214.147 16.7157 211.503 17.5239L220.72 1.54733Z" fill="#FFC107"/>
</g>
<defs>
<clipPath id="clip0_2_153">
<rect width="90" height="68" fill="white" transform="translate(185)"/>
</clipPath>
</defs>
</svg>
